<svg width="152" height="30" viewBox="0 0 152 30" fill="none" xmlns="http://www.w3.org/2000/svg">
<g clip-path="url(#clip0_2001_81)">
<path d="M35.2334 7.07083H22.4565L21.9832 7.42971V18.9528H25.5201V14.6317L25.8577 14.325H35.2339C37.6012 14.325 38.7111 13.6793 38.7111 12.0224V9.37664C38.7107 7.71707 37.6012 7.07083 35.2334 7.07083ZM35.2334 11.3309C35.2334 12.1116 34.724 12.2737 33.6142 12.2737H25.8964L25.5197 11.9024V9.43392L25.8572 9.12078H33.6142C34.724 9.12078 35.2334 9.28107 35.2334 10.0654V11.3309Z" fill="white"/>
<path d="M45.1607 9.25056L48.2042 13.7712L48.0357 14.2091H41.3048L39.5867 16.3518H49.6057L50.3 16.7805L51.8555 18.9556H55.9032L47.031 6.92349" fill="white"/>
<path d="M85.4087 16.6151V13.4169L85.773 13.0982H92.5444V11.0617H81.8123V18.9551H97.643V16.9283H85.7887" fill="white"/>
<path d="M97.8101 7.07083H81.8123V9.31014H97.8101V7.07083Z" fill="white"/>
<path d="M63.9688 9.19142H76.8573C76.6587 7.52999 75.6415 7.069 73.0623 7.069H63.8317C60.9208 7.069 59.9922 7.64499 59.9922 9.87828V16.144C59.9922 18.3796 60.9208 18.9556 63.8317 18.9556H73.0623C75.6794 18.9556 76.6815 18.4572 76.7501 16.7339H63.9688L63.5898 16.3721V9.43349" fill="white"/>
<path d="M13.3825 11.7009H4.00643L3.73032 11.3929V9.35957L4.00506 9.14435H16.6447L16.8175 8.71614C16.3869 7.59328 15.272 7.06946 13.2017 7.06946H4.42149C1.51238 7.06946 0.582465 7.64542 0.582465 9.87871V11.1924C0.582465 13.4285 1.51238 14.0035 4.42149 14.0035H13.7767L14.0705 14.265V16.3906L13.8309 16.7223H3.12982V16.7121H0.326864C0.326864 16.7121 0.00610976 16.8751 0.0184114 16.9514C0.25761 18.5136 1.30735 18.9561 3.82053 18.9561H13.3825C16.2912 18.9561 17.249 18.3801 17.249 16.1444V14.5079C17.249 12.276 16.2912 11.7009 13.3825 11.7009Z" fill="white"/>
<path d="M107.874 7.02188H102.611L102.325 7.57293L108.17 11.8921C109.277 11.2423 110.481 10.5836 111.792 9.93372" fill="white"/>
<path d="M112.589 15.1583L117.726 18.9561H123.054L123.274 18.453L115.604 12.761C114.584 13.519 113.578 14.3195 112.589 15.1583Z" fill="white"/>
<path d="M107.091 18.9473H102.329L101.927 18.3084C105.164 15.1394 119.645 1.55436 151.121 0.0989075C151.121 0.0989075 124.702 1.00239 107.091 18.9473Z" fill="white"/>
<path d="M2.2609 28.3604C1.74662 28.3604 1.35138 28.27 1.07519 28.089C0.798998 27.9081 0.608521 27.6414 0.50376 27.289C0.40376 26.9318 0.35376 26.4581 0.35376 25.8676C0.35376 25.22 0.408521 24.7152 0.518045 24.3533C0.632331 23.9914 0.820426 23.7318 1.08233 23.5747C1.34423 23.4128 1.7109 23.3318 2.18233 23.3318C2.61566 23.3318 3.099 23.3961 3.63233 23.5247L3.60376 24.3104C3.13233 24.239 2.749 24.2033 2.45376 24.2033C2.15376 24.2033 1.92757 24.2509 1.77519 24.3461C1.6228 24.4414 1.51566 24.5986 1.45376 24.8176C1.39662 25.0318 1.36805 25.3366 1.36805 25.7318V25.9961C1.37757 26.4057 1.40614 26.7128 1.45376 26.9176C1.50614 27.1176 1.60614 27.2628 1.75376 27.3533C1.90138 27.4438 2.12757 27.489 2.43233 27.489C2.75614 27.489 3.14662 27.4557 3.60376 27.389L3.62519 28.1961C3.10614 28.3057 2.65138 28.3604 2.2609 28.3604ZM12.7535 27.3961H11.0535L10.8607 28.2747H9.87494L10.9678 23.4176H12.8392L13.9321 28.2747H12.9464L12.7535 27.3961ZM12.0749 24.2318H11.7321L11.2392 26.539H12.5678L12.0749 24.2318ZM20.4362 23.4176H22.3219C23.4647 23.4176 24.0362 23.9509 24.0362 25.0176C24.0362 25.6509 23.798 26.1176 23.3219 26.4176L24.0147 28.2747H22.9362L22.3719 26.6461H21.4219V28.2747H20.4362V23.4176ZM22.3362 25.8033C22.5599 25.8033 22.7314 25.7343 22.8504 25.5961C22.9694 25.4533 23.029 25.2628 23.029 25.0247C23.029 24.7866 22.9671 24.6009 22.8433 24.4676C22.7194 24.3295 22.5457 24.2604 22.3219 24.2604H21.4219V25.8033H22.3362ZM32.5012 28.3604C32.0012 28.3604 31.606 28.2723 31.3155 28.0961C31.0298 27.92 30.8251 27.6486 30.7012 27.2818C30.5774 26.9152 30.5155 26.4295 30.5155 25.8247C30.5155 25.2295 30.5798 24.7509 30.7084 24.389C30.8369 24.0223 31.0417 23.7557 31.3227 23.589C31.6084 23.4176 31.9894 23.3318 32.4655 23.3318C32.9084 23.3318 33.3869 23.3818 33.9012 23.4818L34.1584 23.5318L34.1298 24.2961C33.5774 24.2343 33.1108 24.2033 32.7298 24.2033C32.3537 24.2033 32.0798 24.2676 31.9084 24.3961C31.7369 24.52 31.6298 24.6914 31.5869 24.9104C31.5489 25.1247 31.5298 25.4461 31.5298 25.8747C31.5298 26.2986 31.5584 26.6247 31.6155 26.8533C31.6727 27.0818 31.7751 27.2486 31.9227 27.3533C32.0751 27.4533 32.2989 27.5033 32.5941 27.5033C32.8751 27.5033 33.0727 27.4938 33.1869 27.4747V26.5318H32.7441V25.6747H34.1584V28.1961C33.4632 28.3057 32.9108 28.3604 32.5012 28.3604ZM42.7464 28.3604C42.2559 28.3604 41.8631 28.2723 41.5679 28.0961C41.2727 27.92 41.0584 27.6509 40.925 27.289C40.7964 26.9223 40.7322 26.4486 40.7322 25.8676C40.7322 25.2818 40.7964 24.8057 40.925 24.439C41.0584 24.0676 41.2727 23.7914 41.5679 23.6104C41.8631 23.4247 42.2559 23.3318 42.7464 23.3318C43.2369 23.3318 43.6298 23.4247 43.925 23.6104C44.2202 23.7914 44.4322 24.0676 44.5607 24.439C44.6941 24.8057 44.7607 25.2818 44.7607 25.8676C44.7607 26.439 44.6964 26.9057 44.5679 27.2676C44.4441 27.6295 44.2345 27.9033 43.9393 28.089C43.6441 28.27 43.2464 28.3604 42.7464 28.3604ZM42.7464 27.5033C43.0036 27.5033 43.2036 27.4509 43.3464 27.3461C43.4941 27.2366 43.5964 27.0652 43.6536 26.8318C43.7155 26.5938 43.7464 26.2723 43.7464 25.8676C43.7464 25.4628 43.7155 25.1414 43.6536 24.9033C43.5917 24.6604 43.4869 24.4818 43.3393 24.3676C43.1964 24.2486 42.9988 24.189 42.7464 24.189C42.4941 24.189 42.2941 24.2486 42.1464 24.3676C42.0036 24.4818 41.9012 24.6604 41.8393 24.9033C41.7774 25.1414 41.7464 25.4628 41.7464 25.8676C41.7464 26.2438 41.7727 26.5486 41.825 26.7818C41.8774 27.0152 41.975 27.1938 42.1179 27.3176C42.2655 27.4414 42.475 27.5033 42.7464 27.5033ZM58.8898 23.4176H60.6755C61.8279 23.4176 62.4041 23.9795 62.4041 25.1033C62.4041 25.6747 62.2564 26.1104 61.9612 26.4104C61.6707 26.7104 61.2422 26.8604 60.6755 26.8604H59.8755V28.2747H58.8898V23.4176ZM60.6684 26.0176C61.1589 26.0176 61.4041 25.7128 61.4041 25.1033C61.4041 24.8081 61.3446 24.5938 61.2255 24.4604C61.1112 24.3271 60.9255 24.2604 60.6684 24.2604H59.8755V26.0176H60.6684ZM71.7172 27.4033V28.2747H68.9532V23.4176H69.9389V27.4033H71.7172ZM80.6508 27.3961H78.9508L78.7579 28.2747H77.7722L78.8651 23.4176H80.7365L81.8294 28.2747H80.8437L80.6508 27.3961ZM79.9722 24.2318H79.6294L79.1365 26.539H80.4651L79.9722 24.2318ZM92.2265 23.4176V28.2747H90.6051L89.3908 24.2747H89.3194V28.2747H88.3337V23.4176H89.9979L91.1694 27.4176H91.2408V23.4176H92.2265ZM103.036 23.4176V28.2747H101.414L100.2 24.2747H100.129V28.2747H99.1429V23.4176H100.807L101.979 27.4176H102.05V23.4176H103.036ZM110.939 24.2747V25.4104H112.667V26.2533H110.939V27.4176H113.096V28.2747H109.953V23.4176H113.096V24.2747H110.939ZM119.765 23.4176H121.651C122.794 23.4176 123.365 23.9509 123.365 25.0176C123.365 25.6509 123.127 26.1176 122.651 26.4176L123.344 28.2747H122.265L121.701 26.6461H120.751V28.2747H119.765V23.4176ZM121.665 25.8033C121.889 25.8033 122.06 25.7343 122.179 25.5961C122.299 25.4533 122.358 25.2628 122.358 25.0247C122.358 24.7866 122.296 24.6009 122.172 24.4676C122.049 24.3295 121.874 24.2604 121.651 24.2604H120.751V25.8033H121.665Z" fill="white"/>
</g>
<defs>
<clipPath id="clip0_2001_81">
<rect width="151.429" height="30" fill="white"/>
</clipPath>
</defs>
</svg>
